<mxfile host="Electron" modified="2023-05-31T13:25:20.134Z" agent="Mozilla/5.0 (Windows NT 10.0; Win64; x64) AppleWebKit/537.36 (KHTML, like Gecko) draw.io/21.2.8 Chrome/112.0.5615.165 Electron/24.2.0 Safari/537.36" etag="lC3z7YIgPQKErAvvdos6" version="21.2.8" type="device">
  <diagram name="Page-1" id="Vn31Phi38d548Jd6JGEV">
    <mxGraphModel dx="675" dy="390" grid="1" gridSize="10" guides="1" tooltips="1" connect="1" arrows="1" fold="1" page="1" pageScale="1" pageWidth="850" pageHeight="1100" math="0" shadow="0">
      <root>
        <mxCell id="0" />
        <mxCell id="1" parent="0" />
        <mxCell id="HSjvIxSosh0ikxAGgUQO-1" value="" style="rounded=1;whiteSpace=wrap;html=1;fillColor=#dae8fc;strokeColor=#6c8ebf;" parent="1" vertex="1">
          <mxGeometry x="50" y="160" width="190" height="120" as="geometry" />
        </mxCell>
        <mxCell id="HSjvIxSosh0ikxAGgUQO-3" value="" style="rounded=1;whiteSpace=wrap;html=1;fillColor=#fff2cc;strokeColor=#d6b656;" parent="1" vertex="1">
          <mxGeometry x="260" y="160" width="190" height="120" as="geometry" />
        </mxCell>
        <mxCell id="HSjvIxSosh0ikxAGgUQO-4" value="&lt;font style=&quot;font-size: 20px;&quot;&gt;Master Node&lt;/font&gt;" style="text;html=1;strokeColor=none;fillColor=none;align=center;verticalAlign=middle;whiteSpace=wrap;rounded=0;" parent="1" vertex="1">
          <mxGeometry x="82.5" y="133" width="125" height="30" as="geometry" />
        </mxCell>
        <mxCell id="HSjvIxSosh0ikxAGgUQO-5" value="&lt;font style=&quot;font-size: 20px;&quot;&gt;Server Nodes&lt;/font&gt;" style="text;html=1;strokeColor=none;fillColor=none;align=center;verticalAlign=middle;whiteSpace=wrap;rounded=0;" parent="1" vertex="1">
          <mxGeometry x="292.5" y="133" width="125" height="30" as="geometry" />
        </mxCell>
        <mxCell id="HSjvIxSosh0ikxAGgUQO-13" value="" style="edgeStyle=orthogonalEdgeStyle;rounded=0;orthogonalLoop=1;jettySize=auto;html=1;" parent="1" source="HSjvIxSosh0ikxAGgUQO-6" target="HSjvIxSosh0ikxAGgUQO-8" edge="1">
          <mxGeometry relative="1" as="geometry" />
        </mxCell>
        <mxCell id="HSjvIxSosh0ikxAGgUQO-6" value="&lt;font style=&quot;font-size: 12px;&quot;&gt;① Scan created server nodes&lt;/font&gt;" style="rounded=0;whiteSpace=wrap;html=1;align=left;" parent="1" vertex="1">
          <mxGeometry x="272.5" y="170" width="165" height="30" as="geometry" />
        </mxCell>
        <mxCell id="HSjvIxSosh0ikxAGgUQO-15" value="" style="edgeStyle=orthogonalEdgeStyle;rounded=0;orthogonalLoop=1;jettySize=auto;html=1;" parent="1" source="HSjvIxSosh0ikxAGgUQO-7" target="HSjvIxSosh0ikxAGgUQO-9" edge="1">
          <mxGeometry relative="1" as="geometry" />
        </mxCell>
        <mxCell id="HSjvIxSosh0ikxAGgUQO-7" value="&lt;font style=&quot;font-size: 12px;&quot;&gt;③ Scan created server nodes&lt;/font&gt;" style="rounded=0;whiteSpace=wrap;html=1;align=left;" parent="1" vertex="1">
          <mxGeometry x="62.5" y="180" width="165" height="30" as="geometry" />
        </mxCell>
        <mxCell id="HSjvIxSosh0ikxAGgUQO-14" style="edgeStyle=orthogonalEdgeStyle;rounded=0;orthogonalLoop=1;jettySize=auto;html=1;entryX=1;entryY=0.5;entryDx=0;entryDy=0;" parent="1" source="HSjvIxSosh0ikxAGgUQO-8" target="HSjvIxSosh0ikxAGgUQO-7" edge="1">
          <mxGeometry relative="1" as="geometry" />
        </mxCell>
        <mxCell id="HSjvIxSosh0ikxAGgUQO-8" value="&lt;font style=&quot;font-size: 12px;&quot;&gt;②&amp;nbsp;Create new node following the created server node list&amp;nbsp;&lt;/font&gt;" style="rounded=0;whiteSpace=wrap;html=1;align=left;" parent="1" vertex="1">
          <mxGeometry x="275" y="220" width="160" height="50" as="geometry" />
        </mxCell>
        <mxCell id="HSjvIxSosh0ikxAGgUQO-9" value="&lt;font style=&quot;font-size: 12px;&quot;&gt;④ Make server node list&lt;/font&gt;" style="rounded=0;whiteSpace=wrap;html=1;align=left;" parent="1" vertex="1">
          <mxGeometry x="65" y="230" width="160" height="30" as="geometry" />
        </mxCell>
      </root>
    </mxGraphModel>
  </diagram>
</mxfile>
